<svg xmlns="http://www.w3.org/2000/svg" width="520" height="340" viewBox="0 0 520 340" role="img" aria-label="After: Agent Playbook assembles linked skills in one Playbook">
  <defs>
    <pattern id="grid2" width="16" height="16" patternUnits="userSpaceOnUse">
      <circle cx="1" cy="1" r="1" fill="#d8dee6"/>
    </pattern>
    <marker id="arrow2" markerWidth="8" markerHeight="8" refX="6" refY="3" orient="auto">
      <path d="M0,0 L6,3 L0,6 Z" fill="#0d7377"/>
    </marker>
  </defs>

  <rect width="520" height="340" rx="12" fill="#f4f6f8" stroke="#0d7377" stroke-width="2"/>
  <rect width="520" height="340" rx="12" fill="url(#grid2)" opacity="0.6"/>

  <text x="20" y="28" font-family="system-ui, sans-serif" font-size="11" font-weight="700" fill="#0d7377" letter-spacing="0.06em">AFTER</text>
  <text x="20" y="48" font-family="system-ui, sans-serif" font-size="15" font-weight="600" fill="#1a2332">Agent Playbook  one linked list</text>

  <!-- Task -->
  <rect x="20" y="64" width="480" height="36" rx="8" fill="#fafbfc" stroke="#0d7377" stroke-width="1.5"/>
  <text x="32" y="86" font-family="ui-monospace, monospace" font-size="11" fill="#1a2332">Task: Build OAuth authentication using FastAPI</text>

  <!-- Graph nodes -->
  <rect x="40" y="130" width="155" height="48" rx="10" fill="#fff" stroke="#1a2332" stroke-width="1.5"/>
  <text x="117" y="152" text-anchor="middle" font-family="system-ui" font-size="12" font-weight="600" fill="#1a2332">OAuth &amp; Auth</text>
  <text x="117" y="168" text-anchor="middle" font-family="system-ui" font-size="9" fill="#0d7377">Matched: oauth, auth</text>

  <rect x="182" y="130" width="155" height="48" rx="10" fill="#fff" stroke="#1a2332" stroke-width="1.5"/>
  <text x="259" y="152" text-anchor="middle" font-family="system-ui" font-size="12" font-weight="600" fill="#1a2332">FastAPI Development</text>
  <text x="259" y="168" text-anchor="middle" font-family="system-ui" font-size="9" fill="#0d7377">Matched: fastapi</text>

  <rect x="324" y="130" width="155" height="48" rx="10" fill="#fff" stroke="#1a2332" stroke-width="1.5"/>
  <text x="401" y="152" text-anchor="middle" font-family="system-ui" font-size="12" font-weight="600" fill="#1a2332">API Testing</text>
  <text x="401" y="168" text-anchor="middle" font-family="system-ui" font-size="9" fill="#0d7377">Related in catalog</text>

  <!-- Edges -->
  <path d="M195 154 L182 154" stroke="#0d7377" stroke-width="2" marker-end="url(#arrow2)"/>
  <path d="M337 154 L324 154" stroke="#0d7377" stroke-width="2" marker-end="url(#arrow2)"/>
  <rect x="208" y="144" width="52" height="16" rx="4" fill="#fafbfc"/>
  <text x="234" y="155" text-anchor="middle" font-family="system-ui" font-size="8" fill="#4a5568">related to</text>
  <rect x="350" y="144" width="52" height="16" rx="4" fill="#fafbfc"/>
  <text x="376" y="155" text-anchor="middle" font-family="system-ui" font-size="8" fill="#4a5568">related to</text>

  <!-- Playbook list -->
  <rect x="20" y="200" width="480" height="96" rx="8" fill="#fff" stroke="#d8dee6"/>
  <text x="32" y="220" font-family="system-ui" font-size="11" font-weight="700" fill="#1a2332">Recommended Playbook</text>

  <text x="32" y="242" font-family="system-ui" font-size="10" fill="#1a2332"> OAuth &amp; Authentication</text>
  <text x="240" y="242" font-family="system-ui" font-size="9" fill="#4a5568">CC0-1.0 · source link</text>

  <text x="32" y="262" font-family="system-ui" font-size="10" fill="#1a2332"> FastAPI Development</text>
  <text x="240" y="262" font-family="system-ui" font-size="9" fill="#4a5568">CC0-1.0 · source link</text>

  <text x="32" y="282" font-family="system-ui" font-size="10" fill="#1a2332"> API Testing</text>
  <text x="240" y="282" font-family="system-ui" font-size="9" fill="#4a5568">connected neighbor · source link</text>

  <!-- Export badge -->
  <rect x="380" y="208" width="108" height="24" rx="12" fill="#0d7377"/>
  <text x="434" y="224" text-anchor="middle" font-family="system-ui" font-size="10" font-weight="600" fill="#fff">Export JSON</text>

  <text x="260" y="318" text-anchor="middle" font-family="system-ui" font-size="11" fill="#0d7377">All relevant skills · linked graph · reasons · one export</text>
</svg>
